<!DOCTYPE svg PUBLIC "-//W3C//DTD SVG 1.1//EN" "http://www.w3.org/Graphics/SVG/1.1/DTD/svg11.dtd">

<!-- Uploaded to: SVG Repo, www.svgrepo.com, Transformed by: SVG Repo Mixer Tools -->
<svg width="30px" height="30px" viewBox="-2.4 -2.4 28.80 28.80" fill="none" xmlns="http://www.w3.org/2000/svg" stroke="#000000" stroke-width="0.00024000000000000003">

<g id="SVGRepo_bgCarrier" stroke-width="0">

<rect x="-2.4" y="-2.4" width="28.80" height="28.80" rx="14.4" fill="#FF3F78FF" strokewidth="0"/>

</g>

<g id="SVGRepo_tracerCarrier" stroke-linecap="round" stroke-linejoin="round"/>

<g id="SVGRepo_iconCarrier">

<path fill-rule="evenodd" clip-rule="evenodd" d="M3.25 5.75a1.25 1.25 0 1 0 0 2.5 1.25 1.25 0 0 0 0-2.5zM7 6a1 1 0 0 0 0 2h12a1 1 0 1 0 0-2H7zm0 5a1 1 0 1 0 0 2h14a1 1 0 1 0 0-2H7zm-1 6a1 1 0 0 1 1-1h10a1 1 0 1 1 0 2H7a1 1 0 0 1-1-1zm-4-5a1.25 1.25 0 1 1 2.5 0A1.25 1.25 0 0 1 2 12zm1.25 3.75a1.25 1.25 0 1 0 0 2.5 1.25 1.25 0 0 0 0-2.5z" fill="#34007E"/>

</g>

</svg>